<?xml version="1.0" encoding="utf-8"?>
<!-- Generator: Adobe Illustrator 17.1.0, SVG Export Plug-In . SVG Version: 6.00 Build 0)  -->
<!DOCTYPE svg PUBLIC "-//W3C//DTD SVG 1.1//EN" "http://www.w3.org/Graphics/SVG/1.1/DTD/svg11.dtd">
<svg version="1.1" id="Layer_1" xmlns="http://www.w3.org/2000/svg" xmlns:xlink="http://www.w3.org/1999/xlink" x="0px" y="0px"
	 viewBox="0 0 16 16" enable-background="new 0 0 16 16" xml:space="preserve">
<g>
	<g>
		<path fill="#3C3C3C" d="M8,1C4.134,1,1,4.134,1,8c0,3.866,3.134,7,7,7s7-3.134,7-7C15,4.134,11.866,1,8,1z M8,13.25
			c-2.899,0-5.25-2.351-5.25-5.25c0-2.9,2.351-5.25,5.25-5.25c2.9,0,5.25,2.35,5.25,5.25C13.25,10.899,10.9,13.25,8,13.25z"/>
	</g>
</g>
<path fill="#3C3C3C" d="M10.006,10.075L8.708,7.826l0.114-2.596c0.017-0.386-0.283-0.713-0.669-0.73
	C7.765,4.486,7.44,4.783,7.423,5.169L7.301,7.967C7.3,7.982,7.303,7.997,7.303,8.012c0,0.029,0.001,0.058,0.005,0.087
	c0.002,0.016,0.007,0.032,0.011,0.048c0.006,0.029,0.013,0.059,0.023,0.087C7.347,8.248,7.354,8.26,7.359,8.273
	C7.37,8.299,7.379,8.325,7.394,8.35l1.4,2.425c0.13,0.225,0.365,0.35,0.607,0.35c0.119,0,0.239-0.03,0.349-0.094
	C10.085,10.838,10.199,10.409,10.006,10.075z"/>
</svg>
