<?xml version="1.0" encoding="UTF-8" standalone="no"?>
<svg
   xmlns:dc="http://purl.org/dc/elements/1.1/"
   xmlns:cc="http://creativecommons.org/ns#"
   xmlns:rdf="http://www.w3.org/1999/02/22-rdf-syntax-ns#"
   xmlns:svg="http://www.w3.org/2000/svg"
   xmlns="http://www.w3.org/2000/svg"
   xmlns:sodipodi="http://sodipodi.sourceforge.net/DTD/sodipodi-0.dtd"
   xmlns:inkscape="http://www.inkscape.org/namespaces/inkscape"
   version="1.1"
   id="pomodoro"
   x="0px"
   y="0px"
   width="16"
   height="16"
   viewBox="0 0 16 16"
   enable-background="new 0 0 86.75 77.914"
   xml:space="preserve"
   inkscape:version="0.48.2 r9819"
   sodipodi:docname="status-long-break.svg"
   inkscape:export-filename="/Users/ccidral/dev/proj/gig/osx/Tomighty/Images/status-long-break.png"
   inkscape:export-xdpi="90"
   inkscape:export-ydpi="90"><metadata
   id="metadata15"><rdf:RDF><cc:Work
       rdf:about=""><dc:format>image/svg+xml</dc:format><dc:type
         rdf:resource="http://purl.org/dc/dcmitype/StillImage" /><dc:title></dc:title></cc:Work></rdf:RDF></metadata><defs
   id="defs13" /><sodipodi:namedview
   pagecolor="#ffffff"
   bordercolor="#666666"
   borderopacity="1"
   objecttolerance="10"
   gridtolerance="10"
   guidetolerance="10"
   inkscape:pageopacity="0"
   inkscape:pageshadow="2"
   inkscape:window-width="1122"
   inkscape:window-height="921"
   id="namedview11"
   showgrid="false"
   inkscape:zoom="14.702788"
   inkscape:cx="14.010215"
   inkscape:cy="6.7219591"
   inkscape:window-x="812"
   inkscape:window-y="0"
   inkscape:window-maximized="0"
   inkscape:current-layer="pomodoro" />



<g
   id="g2985"
   transform="matrix(0.18144686,0,0,0.18144686,0.10706157,12.989788)"
   style="fill:#2a8fbd;fill-opacity:1"
   inkscape:export-filename="/Users/ccidral/dev/proj/gig/osx/Tomighty/Images/status-long-break.png"
   inkscape:export-xdpi="5.625"
   inkscape:export-ydpi="5.625"><path
     inkscape:export-ydpi="16.6"
     inkscape:export-xdpi="16.6"
     inkscape:export-filename="/Users/ccidral/Pictures/Tomighty/status-icon-red.png"
     style="fill:#2a8fbd;fill-opacity:1"
     inkscape:connector-curvature="0"
     id="path3"
     d="m 43.619447,-2.655205 c -0.026,0 -0.051,-0.004 -0.077,-0.004 l 3.995,3.439 h -8.068 l 3.998,-3.439 c -16.596,-0.041 -31.522,-6.434 -41.8950002,-16.611 1.117,17.865 14.0920002,31.740005 35.9790002,34.727005 h 12.136 c 21.887,-2.984 34.86,-16.857005 35.979,-34.726005 -10.408,10.208 -25.392,16.614 -42.047,16.614 z" /><path
     inkscape:export-ydpi="16.6"
     inkscape:export-xdpi="16.6"
     inkscape:export-filename="/Users/ccidral/Pictures/Tomighty/status-icon-red.png"
     style="fill:#2a8fbd;fill-opacity:1"
     inkscape:connector-curvature="0"
     id="path5"
     d="m 41.706447,-63.523205 c 1.506,-0.531 2.09,-0.531 3.595,0 1.546,-2.74 3.915,-5.312 6.392,-6.24 -5.146,-0.915 -11.298,-0.923 -16.478,-0.034 2.513,0.897 4.925,3.497 6.491,6.274 z" /><path
     inkscape:export-ydpi="16.6"
     inkscape:export-xdpi="16.6"
     inkscape:export-filename="/Users/ccidral/Pictures/Tomighty/status-icon-red.png"
     style="fill:#2a8fbd;fill-opacity:1"
     inkscape:connector-curvature="0"
     id="path7"
     d="m 45.410447,-57.848205 h -3.781 c 0,0 -0.655,-3.279 0,-3.984 0.668,-0.719 3.187,-0.791 3.782,0 0.58,0.775 -0.001,3.984 -0.001,3.984 z" /><path
     inkscape:export-ydpi="16.6"
     inkscape:export-xdpi="16.6"
     inkscape:export-filename="/Users/ccidral/Pictures/Tomighty/status-icon-red.png"
     style="fill:#2a8fbd;fill-opacity:1"
     inkscape:connector-curvature="0"
     id="path9"
     d="m 83.571447,-48.544205 c 3,-3 -12,-23 -26,-14 2.145,-1.787 3.14,-2.244 3.939,-2.764 -0.945,-1.273 -2.607,-2.309 -4.724,-3.109 -1.938,1.999 -4.3,5.343 -4.3,8.016 7.884,-2.742 15.398,-3.365 21.275,3.169 -10.169,-0.808 -14.738,-1.153 -18.326,1.543 2.947,1.606 6.42,4.435 6.037,14.034 -14.777,-14.777 -21.167,-14.778 -35.948,0 -0.383,-9.6 3.089,-12.428 6.036,-14.034 -3.587,-2.696 -8.157,-2.351 -18.326,-1.543 5.877,-6.534 13.394,-5.911 21.276,-3.169 0,-2.711 -2.429,-6.113 -4.383,-8.102 -2.151,0.778 -3.865,1.789 -4.873,3.031 0.968,0.535 1.808,0.955 4.175,2.928 -14,-9 -29.00000022,11 -26.0000002,14 -4.711,2.355 -3.25800002,13.955 -2.415,18.831 1.138,1.143 2.343,2.229 3.59,3.276 v -3.445 l 1,0.878 v 3.391 c 4.8190002,3.855 10.3730002,6.988 16.4540002,9.207 v -3.206 l 1,0.405 v 3.153 c 6.23,2.149 12.987,3.349 20.055,3.39 v -2.71 h 1.001 v 2.704 c 16.646,-0.16 31.574,-6.709 41.869,-17.045 0.845,-4.872 2.299,-16.473 -2.412,-18.829 z" /></g>
</svg>